<?xml version="1.0" standalone="no"?>
<!DOCTYPE svg PUBLIC "-//W3C//DTD SVG 20010904//EN"
 "http://www.w3.org/TR/2001/REC-SVG-20010904/DTD/svg10.dtd">
<svg version="1.0" xmlns="http://www.w3.org/2000/svg"
 width="260.000000pt" height="260.000000pt" viewBox="0 0 260.000000 260.000000"
 preserveAspectRatio="xMidYMid meet">
<metadata>
Created by potrace 1.11, written by Peter Selinger 2001-2013
</metadata>
<g transform="translate(0.000000,260.000000) scale(0.100000,-0.100000)"
fill="#000000" stroke="none">
<path d="M635 2461 c-48 -22 -69 -44 -90 -94 -13 -32 -15 -161 -15 -1059 0
-971 1 -1025 19 -1063 22 -48 44 -69 94 -90 55 -23 1259 -23 1314 0 50 21 72
42 94 90 18 38 19 92 19 1063 0 898 -2 1027 -15 1059 -21 50 -42 72 -90 94
-37 17 -80 19 -665 19 -585 0 -628 -2 -665 -19z m645 -126 l0 -25 -304 0
c-202 0 -307 4 -311 10 -4 6 -4 17 -1 25 5 13 53 15 311 15 l305 0 0 -25z
m110 0 c0 -21 -5 -25 -30 -25 -25 0 -30 4 -30 25 0 21 5 25 30 25 25 0 30 -4
30 -25z m560 -965 l0 -880 -650 0 -650 0 0 880 0 880 650 0 650 0 0 -880z"/>
<path d="M760 825 l0 -115 540 0 540 0 0 115 0 115 -540 0 -540 0 0 -115z"/>
</g>
</svg>
